<svg xmlns="http://www.w3.org/2000/svg" width="1440" height="1000" viewBox="0 0 1440 1000" role="img" aria-labelledby="title desc">
<title id="title">Avari Domains diagnostics report preview</title><desc id="desc">Illustrative domain report with registration status, site checks, and mail diagnostics tabs.</desc>
<defs><linearGradient id="bg" x2="1" y2="1"><stop stop-color="#0c1725"/><stop offset="1" stop-color="#080e18"/></linearGradient><linearGradient id="accent"><stop stop-color="#ff9c5b"/><stop offset="1" stop-color="#f56839"/></linearGradient></defs>
<rect width="1440" height="1000" fill="url(#bg)"/><rect width="1440" height="80" fill="#090f1b"/><path d="M0 80h1440" stroke="#ffffff" stroke-opacity=".08"/><g font-family="Arial,sans-serif" fill="#e9f2fc"><text x="55" y="48" font-size="19" font-weight="700" letter-spacing="2">AVARI DOMAINS</text><text x="1140" y="48" font-size="14" fill="#9aabc0">Проверка</text><text x="1250" y="48" font-size="14" fill="#9aabc0">История</text>
<text x="160" y="143" font-size="11" fill="#80dafa" letter-spacing="2">РЕЗУЛЬТАТ ПРОВЕРКИ</text><text x="160" y="188" font-size="35" font-weight="700">example.com</text><text x="160" y="222" font-size="14" fill="#9aacc0">Проверяемый хост: example.com</text><text x="160" y="246" font-size="14" fill="#9aacc0">Домен регистрации и покупки: example.com</text><rect x="1080" y="135" width="200" height="48" rx="9" fill="#152333" stroke="#43627d"/><text x="1180" y="165" text-anchor="middle" font-size="14">↻ Проверить снова</text>
<rect x="160" y="284" width="1120" height="150" rx="14" fill="#111c2a" stroke="#31506a"/><circle cx="205" cy="335" r="9" fill="#ff9a56"/><text x="236" y="326" font-size="11" fill="#9aacc0" letter-spacing="2">РЕГИСТРАЦИЯ ДОМЕНА</text><text x="236" y="362" font-size="25" font-weight="700">Статус регистрации</text><text x="236" y="394" font-size="14" fill="#aab8c8">Источник RDAP · результат с пояснением и временем проверки</text><text x="1200" y="360" text-anchor="end" font-size="13" fill="#80dafa">ПОДРОБНОСТИ　⌄</text>
<rect x="160" y="470" width="560" height="54" rx="10" fill="#111c2a" stroke="#ffffff" stroke-opacity=".09"/><rect x="168" y="478" width="270" height="38" rx="7" fill="url(#accent)"/><text x="303" y="503" text-anchor="middle" font-size="14" font-weight="700" fill="#1c100a">Сайт</text><text x="570" y="503" text-anchor="middle" font-size="14" fill="#9aacc0">Почта</text><text x="160" y="567" font-size="12" fill="#80dafa" letter-spacing="2">ДИАГНОСТИКА САЙТА</text>
</g>
<g font-family="Arial,sans-serif"><g><rect x="160" y="590" width="540" height="74" rx="11" fill="#111c2a" stroke="#ffffff" stroke-opacity=".08"/><circle cx="193" cy="627" r="14" fill="#153d39"/><text x="193" y="632" text-anchor="middle" font-size="14" fill="#69dbb4">✓</text><text x="222" y="620" font-size="15" fill="#e9f2fc" font-weight="700">A · IPv4 адрес</text><text x="222" y="643" font-size="12" fill="#90a2b7">DNS-ответы и IP-адреса</text><text x="670" y="631" text-anchor="end" font-size="12" fill="#69dbb4">Работает</text></g><g><rect x="740" y="590" width="540" height="74" rx="11" fill="#111c2a" stroke="#ffffff" stroke-opacity=".08"/><circle cx="773" cy="627" r="14" fill="#153d39"/><text x="773" y="632" text-anchor="middle" font-size="14" fill="#69dbb4">✓</text><text x="802" y="620" font-size="15" fill="#e9f2fc" font-weight="700">AAAA · IPv6 адрес</text><text x="802" y="643" font-size="12" fill="#90a2b7">DNS-ответы и IP-адреса</text><text x="1250" y="631" text-anchor="end" font-size="12" fill="#69dbb4">Работает</text></g>
<g><rect x="160" y="680" width="540" height="74" rx="11" fill="#111c2a" stroke="#ffffff" stroke-opacity=".08"/><circle cx="193" cy="717" r="14" fill="#173044"/><text x="193" y="722" text-anchor="middle" font-size="14" fill="#80dafa">·</text><text x="222" y="710" font-size="15" fill="#e9f2fc" font-weight="700">CNAME · Псевдоним</text><text x="222" y="733" font-size="12" fill="#90a2b7">Необязательная запись</text><text x="670" y="721" text-anchor="end" font-size="12" fill="#80dafa">Необязательно</text></g><g><rect x="740" y="680" width="540" height="74" rx="11" fill="#111c2a" stroke="#ffffff" stroke-opacity=".08"/><circle cx="773" cy="717" r="14" fill="#153d39"/><text x="773" y="722" text-anchor="middle" font-size="14" fill="#69dbb4">✓</text><text x="802" y="710" font-size="15" fill="#e9f2fc" font-weight="700">NS · Серверы имён</text><text x="802" y="733" font-size="12" fill="#90a2b7">Делегирование домена</text><text x="1250" y="721" text-anchor="end" font-size="12" fill="#69dbb4">Работает</text></g>
<g><rect x="160" y="770" width="540" height="74" rx="11" fill="#111c2a" stroke="#ffffff" stroke-opacity=".08"/><circle cx="193" cy="807" r="14" fill="#453025"/><text x="193" y="812" text-anchor="middle" font-size="14" fill="#ff9c5b">!</text><text x="222" y="800" font-size="15" fill="#e9f2fc" font-weight="700">TLS · Сертификат</text><text x="222" y="823" font-size="12" fill="#90a2b7">Доверие и срок действия</text><text x="670" y="811" text-anchor="end" font-size="12" fill="#ff9c5b">Внимание</text></g><g><rect x="740" y="770" width="540" height="74" rx="11" fill="#111c2a" stroke="#ffffff" stroke-opacity=".08"/><circle cx="773" cy="807" r="14" fill="#153d39"/><text x="773" y="812" text-anchor="middle" font-size="14" fill="#69dbb4">✓</text><text x="802" y="800" font-size="15" fill="#e9f2fc" font-weight="700">HTTPS · Защищённый ответ</text><text x="802" y="823" font-size="12" fill="#90a2b7">Ответ по защищённому соединению</text><text x="1250" y="811" text-anchor="end" font-size="12" fill="#69dbb4">Работает</text></g></g><text x="160" y="910" font-family="Arial,sans-serif" font-size="12" fill="#71869c">Проверка: 29.09.2026 · Регион: не указан</text><text x="1280" y="910" text-anchor="end" font-family="Arial,sans-serif" font-size="12" fill="#71869c">История проверок хранится в этом браузере</text></svg>
